<?xml version="1.0" encoding="UTF-8"?>
<svg width="400" height="300" viewBox="0 0 400 300" xmlns="http://www.w3.org/2000/svg">
  <defs>
    <style>
      .bg { fill: #000000; }
      .arch1 { fill: #B91C1C; }
      .arch2 { fill: #A31818; }
      .arch3 { fill: #8F1515; }
      .arch4 { fill: #7B1212; }
      .text { fill: #B91C1C; font-family: 'serif'; font-size: 24px; font-weight: bold; text-anchor: middle; }
    </style>
  </defs>
  
  <!-- Background -->
  <rect class="bg" width="400" height="300"/>
  
  <!-- Outer arch (largest) -->
  <path class="arch1" d="M 50 200 C 50 50, 150 20, 200 20 C 250 20, 350 50, 350 200 L 320 200 C 320 70, 240 50, 200 50 C 160 50, 80 70, 80 200 Z"/>
  
  <!-- Second arch -->
  <path class="arch2" d="M 80 200 C 80 80, 140 60, 200 60 C 260 60, 320 80, 320 200 L 290 200 C 290 100, 230 90, 200 90 C 170 90, 110 100, 110 200 Z"/>
  
  <!-- Third arch -->
  <path class="arch3" d="M 110 200 C 110 110, 155 100, 200 100 C 245 100, 290 110, 290 200 L 260 200 C 260 130, 220 130, 200 130 C 180 130, 140 130, 140 200 Z"/>
  
  <!-- Inner arch (smallest) -->
  <path class="arch4" d="M 140 200 C 140 140, 170 140, 200 140 C 230 140, 260 140, 260 200 L 230 200 C 230 160, 210 170, 200 170 C 190 170, 170 160, 170 200 Z"/>
  
  <!-- Text -->
  <text class="text" x="200" y="250">MOBILE MARISTAN</text>
</svg>